# File created by Blade
# Date/Time:  Tue Sep 30 19:29:27 2014
#---------------------------------------------------------
:version 1.10
:name HOM
:units
  mass 1.0
  length 1.000000
  angle deg
:documentation
     Acclaim Skeleton File
:root
   axis xyz
   order TX TY TZ RX RY RZ
   position 0.000000 0.000000 0.000000
   orientation 0 0 0
:bonedata
   begin
      id 1
      name RightUpLeg_dum
      direction -1.000000 0.000000 0.000000
      length 3.766986
      axis 0.0 0.0 0.0 xyz
   end
   begin
      id 2
      name LeftUpLeg_dum
      direction 1.000000 0.000000 0.000000
      length 3.766986
      axis 0.0 0.0 0.0 xyz
   end
   begin
      id 3
      name Spine_dum
      direction 0.000000 1.000000 0.000000
      length 7.779697
      axis 0.0 0.0 0.0 xyz
   end
   begin
      id 4
      name RightUpLeg
      direction 0.000000 -1.000000 0.000000
      length 18.017682
      axis 0.0 0.0 0.0 xyz
      dof rx ry rz
   end
   begin
      id 5
      name RightLeg
      direction 0.000000 -1.000000 0.000000
      length 16.881075
      axis 0.0 0.0 0.0 xyz
      dof rx ry rz
   end
   begin
      id 6
      name RightFoot
      direction 0.000000 -0.258819 0.965926
      length 5.770812
      axis 15.0 0.0 0.0 xyz
      dof rx ry rz
   end
   begin
      id 7
      name RightToeBase
      direction 0.000000 0.000000 1.000000
      length 2.952750
      axis 0.0 0.0 0.0 xyz
      dof rx ry rz
   end
   begin
      id 8
      name LeftUpLeg
      direction 0.000000 -1.000000 0.000000
      length 18.017682
      axis 0.0 0.0 0.0 xyz
      dof rx ry rz
   end
   begin
      id 9
      name LeftLeg
      direction 0.000000 -1.000000 0.000000
      length 16.881075
      axis 0.0 0.0 0.0 xyz
      dof rx ry rz
   end
   begin
      id 10
      name LeftFoot
      direction 0.000000 -0.258819 0.965926
      length 5.770812
      axis 15.0 0.0 0.0 xyz
      dof rx ry rz
   end
   begin
      id 11
      name LeftToeBase
      direction 0.000000 0.000000 1.000000
      length 2.952750
      axis 0.0 0.0 0.0 xyz
      dof rx ry rz
   end
   begin
      id 12
      name Spine
      direction 0.000000 1.000000 0.000000
      length 0.000000
      axis 0.0 0.0 0.0 xyz
      dof rx ry rz
   end
   begin
      id 13
      name Spine_dum1
      direction 0.000000 1.000000 0.000000
      length 10.941760
      axis 0.0 0.0 0.0 xyz
   end
   begin
      id 14
      name Spine_dum2
      direction 0.000000 1.000000 0.000000
      length 10.941760
      axis 0.0 0.0 0.0 xyz
   end
   begin
      id 15
      name Spine_dum3
      direction 0.000000 1.000000 0.000000
      length 16.646042
      axis 0.0 0.0 0.0 xyz
   end
   begin
      id 16
      name RightShoulder
      direction -1.000000 0.000000 0.000000
      length 7.708937
      axis 0.0 0.0 90.0 xyz
      dof rx ry rz
   end
   begin
      id 17
      name RightArm
      direction -1.000000 0.000000 0.000000
      length 11.521345
      axis 0.0 0.0 90.0 xyz
      dof rx ry rz
   end
   begin
      id 18
      name RightForeArm
      direction -1.000000 0.000000 0.000000
      length 10.175898
      axis 0.0 0.0 90.0 xyz
      dof ry rz rx
   end
   begin
      id 19
      name RightHand
      direction -1.000000 0.000000 0.000000
      length 0.000000
      axis 0.0 0.0 90.0 xyz
      dof rx ry rz
   end
   begin
      id 20
      name RightHand_dum1
      direction -1.000000 0.000000 0.000000
      length 3.937000
      axis 0.0 0.0 90.0 xyz
   end
   begin
      id 21
      name RightHand_dum2
      direction 0.000000 0.000000 0.000000
      length 0.000000
      axis 0.0 0.0 90.0 xyz
   end
   begin
      id 22
      name RightHandThumb1
      direction 0.000000 0.000000 1.000000
      length 3.937000
      axis 0.0 0.0 90.0 xyz
      dof rx rz ry
   end
   begin
      id 23
      name LeftShoulder
      direction 1.000000 0.000000 0.000000
      length 7.708937
      axis 0.0 0.0 -90.0 xyz
      dof rx ry rz
   end
   begin
      id 24
      name LeftArm
      direction 1.000000 0.000000 0.000000
      length 11.521345
      axis 0.0 0.0 -90.0 xyz
      dof rx ry rz
   end
   begin
      id 25
      name LeftForeArm
      direction 1.000000 0.000000 0.000000
      length 10.175898
      axis 0.0 0.0 -90.0 xyz
      dof ry rz rx
   end
   begin
      id 26
      name LeftHand
      direction 1.000000 0.000000 0.000000
      length 0.000000
      axis 0.0 0.0 -90.0 xyz
      dof rx ry rz
   end
   begin
      id 27
      name LeftHand_dum1
      direction 1.000000 0.000000 0.000000
      length 3.937000
      axis 0.0 0.0 -90.0 xyz
   end
   begin
      id 28
      name LeftHand_dum2
      direction 0.000000 0.000000 0.000000
      length 0.000000
      axis 0.0 0.0 -90.0 xyz
   end
   begin
      id 29
      name LeftHandThumb1
      direction 0.000000 0.000000 1.000000
      length 3.937000
      axis 0.0 0.0 -90.0 xyz
      dof rx rz ry
   end
   begin
      id 30
      name Head
      direction 0.000000 1.000000 0.000000
      length 4.527550
      axis 0.0 0.0 0.0 xyz
      dof rx ry rz
   end
:hierarchy
   begin
      root RightUpLeg_dum LeftUpLeg_dum Spine_dum
      RightUpLeg_dum RightUpLeg
      LeftUpLeg_dum LeftUpLeg
      Spine_dum Spine
      RightUpLeg RightLeg
      RightLeg RightFoot
      RightFoot RightToeBase
      LeftUpLeg LeftLeg
      LeftLeg LeftFoot
      LeftFoot LeftToeBase
      Spine Spine_dum1 Spine_dum2 Spine_dum3
      Spine_dum1 RightShoulder
      Spine_dum2 LeftShoulder
      Spine_dum3 Head
      RightShoulder RightArm
      RightArm RightForeArm
      RightForeArm RightHand
      RightHand RightHand_dum1 RightHand_dum2
      RightHand_dum2 RightHandThumb1
      LeftShoulder LeftArm
      LeftArm LeftForeArm
      LeftForeArm LeftHand
      LeftHand LeftHand_dum1 LeftHand_dum2
      LeftHand_dum2 LeftHandThumb1
   end

# File created by Blade
# Date/Time:  Mon Sep 22 17:23:16 2014
# Frame Rate: 120.000 fps
#------------------------------------------------------
:FULLY-SPECIFIED
:DEGREES
812
root 2.093042 38.097143 0.504996 -20.744459 36.786619 -14.382673
RightUpLeg -68.199118 14.676384 -16.397583
RightLeg 107.074071 -0.000000 -0.000000
RightFoot 12.881834 -21.529093 4.015362
RightToeBase -0.169448 -0.000000 0.000000
LeftUpLeg 11.107268 -18.993297 1.682478
LeftLeg 13.952940 -0.000000 -0.000000
LeftFoot -11.102643 2.400840 -12.151011
LeftToeBase 3.405565 -0.000000 -0.000000
Spine 23.895230 -40.396725 1.138223
RightShoulder 0.588750 -30.894731 -7.364954
RightArm 14.600152 -35.690074 64.384614
RightForeArm -180.211810 -0.000000 44.389965
RightHand 97.375867 -0.000000 -168.154632
RightHandThumb1 -24.326973 -0.000000 -32.862282
LeftShoulder -3.251362 24.136619 15.098980
LeftArm 84.343338 -18.966686 -58.845253
LeftForeArm 32.914944 -0.000000 38.187147
LeftHand -22.115507 -0.000000 -3.154537
LeftHandThumb1 -26.253704 0.000000 33.147579
Head 0.765017 6.861128 10.527327
813
root 2.100363 38.081619 0.488790 -20.666452 36.498884 -14.111884
RightUpLeg -68.354076 14.448225 -15.901133
RightLeg 106.859789 -0.000000 -0.000000
RightFoot 12.930983 -21.511645 3.998571
RightToeBase -0.074437 -0.000000 0.000000
LeftUpLeg 11.241353 -18.752988 1.471869
LeftLeg 13.954098 -0.000000 -0.000000
LeftFoot -11.137014 2.522433 -12.103958
LeftToeBase 3.330086 -0.000000 -0.000000
Spine 24.079295 -40.256166 0.917117
RightShoulder 0.528748 -30.946842 -7.276571
RightArm 14.502391 -35.623224 64.464009
RightForeArm -180.147079 -0.000000 44.315306
RightHand 97.390003 -0.000000 -168.292628
RightHandThumb1 -24.326973 -0.000000 -32.862282
LeftShoulder -3.321380 24.122352 15.051383
LeftArm 84.232671 -19.137831 -58.858287
LeftForeArm 32.832872 0.000000 38.143132
LeftHand -22.110687 -0.000000 -3.188015
LeftHandThumb1 -26.253704 0.000000 33.147579
Head 0.773549 7.168311 10.434503
814
root 2.107086 38.063620 0.472116 -20.576698 36.328062 -13.772818
RightUpLeg -68.475840 14.150026 -15.491231
RightLeg 106.698581 -0.000000 -0.000000
RightFoot 12.932410 -21.493024 4.140639
RightToeBase -0.060344 -0.000000 0.000000
LeftUpLeg 11.386196 -18.641510 1.141995
LeftLeg 13.969358 -0.000000 -0.000000
LeftFoot -11.156179 2.725678 -11.995996
LeftToeBase 3.192048 -0.000000 -0.000000
Spine 24.329091 -40.192978 0.493312
RightShoulder 0.484655 -31.052882 -7.148120
RightArm 14.513957 -35.632926 64.482411
RightForeArm -180.143345 -0.000000 44.219957
RightHand 97.417148 -0.000000 -168.409731
RightHandThumb1 -24.326973 -0.000000 -32.862282
LeftShoulder -3.414203 24.124616 15.052108
LeftArm 84.125699 -19.303984 -58.852394
LeftForeArm 32.804468 0.000000 38.079951
LeftHand -22.089447 -0.000000 -3.262141
LeftHandThumb1 -26.253704 0.000000 33.147579
Head 0.818775 7.323402 10.363942
815
root 2.117341 38.048844 0.457046 -20.543984 36.111365 -13.513651
RightUpLeg -68.562106 13.899254 -15.008618
RightLeg 106.523489 -0.000000 -0.000000
RightFoot 12.877140 -21.435905 4.266137
RightToeBase 0.115990 -0.000000 -0.000000
LeftUpLeg 11.589713 -18.575366 0.844131
LeftLeg 13.936582 -0.000000 -0.000000
LeftFoot -11.203820 3.065986 -11.687923
LeftToeBase 3.064218 -0.000000 -0.000000
Spine 24.563254 -40.095434 0.202309
RightShoulder 0.447461 -31.105445 -7.047767
RightArm 14.438090 -35.621131 64.538077
RightForeArm -180.023209 -0.000000 44.156175
RightHand 97.415847 -0.000000 -168.665411
RightHandThumb1 -24.326973 -0.000000 -32.862282
LeftShoulder -3.472033 24.139560 15.042480
LeftArm 84.054270 -19.474365 -58.871263
LeftForeArm 32.786390 -0.000000 38.020136
LeftHand -22.112470 -0.000000 -3.316695
LeftHandThumb1 -26.253704 0.000000 33.147579
Head 0.824549 7.381179 10.230649
816
root 2.128863 38.035031 0.442597 -20.525954 35.875665 -13.311254
RightUpLeg -68.653742 13.656639 -14.464400
RightLeg 106.337285 -0.000000 -0.000000
RightFoot 12.831099 -21.408713 4.357207
RightToeBase 0.292657 -0.000000 -0.000000
LeftUpLeg 11.787220 -18.527475 0.583243
LeftLeg 13.884833 -0.000000 -0.000000
LeftFoot -11.320265 3.453396 -11.594240
LeftToeBase 3.131458 -0.000000 -0.000000
Spine 24.711535 -40.033058 0.080993
RightShoulder 0.416233 -31.116170 -7.079971
RightArm 14.379424 -35.700128 64.671835
RightForeArm -180.234956 -0.000000 43.998674
RightHand 97.403368 -0.000000 -168.630099
RightHandThumb1 -24.326973 -0.000000 -32.862282
LeftShoulder -3.539125 24.156695 14.905976
LeftArm 83.953381 -19.699970 -58.771818
LeftForeArm 32.708708 -0.000000 37.947951
LeftHand -22.084167 -0.000000 -3.419335
LeftHandThumb1 -26.253704 0.000000 33.147579
Head 0.863068 7.986053 10.143443
817
root 2.137891 38.020968 0.428513 -20.515544 35.641695 -13.111353
RightUpLeg -68.737884 13.429749 -13.905030
RightLeg 106.164916 -0.000000 -0.000000
RightFoot 12.756854 -21.462027 4.458482
RightToeBase 0.080380 -0.000000 -0.000000
LeftUpLeg 11.988982 -18.488493 0.320832
LeftLeg 13.835881 -0.000000 -0.000000
LeftFoot -11.376766 3.866229 -11.382053
LeftToeBase 3.018920 -0.000000 -0.000000
Spine 24.894355 -39.924637 -0.083972
RightShoulder 0.343697 -31.153572 -7.050988
RightArm 14.284894 -35.577860 64.801803
RightForeArm -179.728120 0.000000 43.998615
RightHand 97.504595 -0.000000 -168.843142
RightHandThumb1 -24.326973 -0.000000 -32.862282
LeftShoulder -3.587430 24.129113 14.866767
LeftArm 83.857155 -19.854140 -58.765750
LeftForeArm 32.728606 -0.000000 37.889585
LeftHand -22.045219 -0.000000 -3.546904
LeftHandThumb1 -26.253704 0.000000 33.147579
Head 0.868342 8.232777 10.001196
